<svg width="800" height="400" viewBox="0 0 800 400" fill="none" xmlns="http://www.w3.org/2000/svg">
<rect width="800" height="400" fill="#ADDEC9"/>
<path d="M385.031 168.562C385.031 171.409 382.721 173.719 379.875 173.719C377.029 173.719 374.719 171.409 374.719 168.562C374.719 165.716 377.029 163.406 379.875 163.406C382.721 163.406 385.031 165.716 385.031 168.562ZM421.125 163.406C418.279 163.406 415.969 165.716 415.969 168.562C415.969 171.409 418.279 173.719 421.125 173.719C423.971 173.719 426.281 171.409 426.281 168.562C426.281 165.716 423.971 163.406 421.125 163.406ZM464.231 276.844H460.519V221.981H340.481V276.844H336.769V220.125C336.769 219.099 337.599 218.269 338.625 218.269H383.175V206.513H359.25C358.224 206.513 357.394 205.682 357.394 204.656V170.419H343.781V166.706H357.394V142.781C357.394 141.755 358.224 140.925 359.25 140.925H378.019V122.156H381.731V140.925H419.269V122.156H422.986V140.925H441.75C442.776 140.925 443.606 141.755 443.606 142.781V166.706H457.219V170.419H443.606V204.656C443.606 205.682 442.776 206.513 441.75 206.513H417.825V218.264H462.375C463.401 218.264 464.231 219.094 464.231 220.12V276.844ZM386.887 218.269H414.112V206.513H386.887V218.269ZM361.106 202.8H439.894V144.638H361.106V202.8Z" fill="black"/>
</svg>
